<svg xmlns="http://www.w3.org/2000/svg" xmlns:xlink="http://www.w3.org/1999/xlink" width="40" zoomAndPan="magnify" viewBox="0 0 30 30.000001" height="40" preserveAspectRatio="xMidYMid meet" version="1.0"><defs><clipPath id="7badcc76f9"><path d="M 0.484375 0 L 29.515625 0 L 29.515625 29.03125 L 0.484375 29.03125 Z M 0.484375 0 " clip-rule="nonzero"/></clipPath><clipPath id="d704448740"><path d="M 6.875 0 L 25.023438 0 L 25.023438 29.03125 L 6.875 29.03125 Z M 6.875 0 " clip-rule="nonzero"/></clipPath></defs><g clip-path="url(#7badcc76f9)"><path fill="#ffffff" d="M 0.484375 0 L 29.515625 0 L 29.515625 29.03125 L 0.484375 29.03125 Z M 0.484375 0 " fill-opacity="1" fill-rule="nonzero"/><path fill="#ffffff" d="M 0.484375 0 L 29.515625 0 L 29.515625 29.03125 L 0.484375 29.03125 Z M 0.484375 0 " fill-opacity="1" fill-rule="nonzero"/></g><g clip-path="url(#d704448740)"><path fill="#000000" d="M 7.78125 23.039062 C 7.84375 24.195312 7.996094 25.398438 8.671875 26.347656 C 8.789062 26.507812 8.914062 26.65625 9.050781 26.789062 C 9.066406 26.804688 9.078125 26.816406 9.09375 26.828125 C 9.105469 26.84375 9.117188 26.855469 9.132812 26.871094 C 9.144531 26.882812 9.160156 26.898438 9.171875 26.910156 C 9.1875 26.925781 9.199219 26.9375 9.214844 26.953125 C 9.226562 26.964844 9.242188 26.980469 9.253906 26.992188 C 9.269531 27.007812 9.28125 27.019531 9.296875 27.03125 C 9.308594 27.046875 9.320312 27.058594 9.335938 27.074219 C 9.347656 27.085938 9.363281 27.101562 9.375 27.113281 C 9.390625 27.128906 9.402344 27.140625 9.417969 27.15625 C 9.429688 27.167969 9.445312 27.183594 9.457031 27.195312 C 9.472656 27.210938 9.484375 27.222656 9.5 27.234375 C 9.511719 27.25 9.527344 27.261719 9.539062 27.277344 C 9.554688 27.289062 9.566406 27.304688 9.578125 27.316406 C 9.59375 27.332031 9.605469 27.34375 9.621094 27.359375 C 9.632812 27.371094 9.648438 27.386719 9.660156 27.398438 C 9.675781 27.414062 9.6875 27.425781 9.703125 27.441406 C 9.714844 27.453125 9.730469 27.464844 9.742188 27.480469 C 9.757812 27.492188 9.769531 27.507812 9.785156 27.519531 C 9.796875 27.535156 9.808594 27.546875 9.824219 27.5625 C 9.835938 27.574219 9.851562 27.589844 9.863281 27.601562 C 9.878906 27.617188 9.890625 27.628906 9.90625 27.644531 C 9.917969 27.65625 9.933594 27.671875 9.945312 27.683594 C 9.960938 27.699219 9.972656 27.710938 9.988281 27.722656 C 10 27.738281 10.011719 27.75 10.027344 27.765625 C 10.039062 27.777344 10.054688 27.792969 10.066406 27.804688 C 10.082031 27.820312 10.09375 27.832031 10.109375 27.847656 C 10.121094 27.859375 10.136719 27.875 10.148438 27.886719 C 10.164062 27.902344 10.175781 27.914062 10.191406 27.925781 C 10.203125 27.941406 10.214844 27.953125 10.230469 27.96875 C 10.921875 28.671875 11.894531 29.03125 13.128906 29.03125 C 13.378906 29.03125 13.644531 29.019531 13.9375 28.992188 L 20.917969 28.386719 C 22.144531 28.28125 23.515625 28.007812 24.421875 26.796875 C 25.171875 25.789062 25.296875 24.542969 25.25 22.976562 C 25.222656 21.816406 25.105469 20.613281 24.4375 19.65625 C 24.316406 19.476562 24.175781 19.316406 24.027344 19.167969 C 24.011719 19.15625 24 19.140625 23.988281 19.128906 C 23.972656 19.113281 23.960938 19.101562 23.945312 19.085938 C 23.933594 19.074219 23.917969 19.058594 23.90625 19.046875 C 23.890625 19.035156 23.878906 19.019531 23.863281 19.007812 C 23.851562 18.992188 23.835938 18.980469 23.824219 18.964844 C 23.808594 18.953125 23.796875 18.9375 23.78125 18.925781 C 23.769531 18.910156 23.757812 18.898438 23.742188 18.882812 C 23.730469 18.871094 23.714844 18.855469 23.703125 18.84375 C 23.6875 18.828125 23.675781 18.816406 23.660156 18.800781 C 23.648438 18.789062 23.632812 18.777344 23.621094 18.761719 C 23.605469 18.75 23.59375 18.734375 23.578125 18.722656 C 23.566406 18.707031 23.554688 18.695312 23.539062 18.679688 C 23.527344 18.667969 23.511719 18.652344 23.5 18.640625 C 23.484375 18.625 23.472656 18.613281 23.457031 18.597656 C 23.445312 18.585938 23.429688 18.570312 23.417969 18.558594 C 23.402344 18.546875 23.390625 18.53125 23.375 18.519531 C 23.363281 18.503906 23.347656 18.492188 23.335938 18.476562 C 23.324219 18.464844 23.308594 18.449219 23.296875 18.4375 C 23.28125 18.421875 23.269531 18.410156 23.253906 18.394531 C 23.242188 18.382812 23.226562 18.367188 23.214844 18.355469 C 23.199219 18.34375 23.1875 18.328125 23.171875 18.316406 C 23.160156 18.300781 23.144531 18.289062 23.132812 18.273438 C 23.117188 18.261719 23.105469 18.246094 23.089844 18.234375 C 23.078125 18.21875 23.066406 18.207031 23.050781 18.191406 C 23.039062 18.179688 23.023438 18.164062 23.011719 18.152344 C 22.996094 18.136719 22.984375 18.125 22.96875 18.113281 C 22.957031 18.097656 22.941406 18.085938 22.929688 18.070312 C 22.914062 18.058594 22.902344 18.042969 22.886719 18.03125 C 22.875 18.015625 22.863281 18.003906 22.847656 17.988281 C 22.515625 17.65625 22.121094 17.402344 21.664062 17.230469 C 21.183594 17.046875 20.636719 16.960938 19.992188 16.960938 C 19.742188 16.960938 19.46875 16.972656 19.164062 17 L 18.4375 17.066406 L 18.550781 6.09375 C 18.566406 4.691406 18.441406 3.253906 17.441406 2.242188 C 17.433594 2.234375 17.425781 2.226562 17.417969 2.21875 C 17.410156 2.210938 17.40625 2.207031 17.402344 2.199219 C 17.394531 2.191406 17.386719 2.183594 17.375 2.175781 C 17.371094 2.171875 17.367188 2.164062 17.363281 2.160156 C 17.351562 2.152344 17.34375 2.144531 17.335938 2.136719 C 17.332031 2.128906 17.324219 2.125 17.320312 2.121094 C 17.3125 2.109375 17.304688 2.101562 17.296875 2.09375 C 17.289062 2.089844 17.285156 2.085938 17.28125 2.078125 C 17.273438 2.070312 17.261719 2.0625 17.253906 2.054688 C 17.25 2.050781 17.246094 2.042969 17.238281 2.039062 C 17.230469 2.03125 17.222656 2.023438 17.214844 2.011719 C 17.207031 2.007812 17.203125 2.003906 17.199219 1.996094 C 17.191406 1.988281 17.183594 1.980469 17.171875 1.972656 C 17.167969 1.96875 17.164062 1.960938 17.15625 1.957031 C 17.148438 1.949219 17.140625 1.941406 17.132812 1.933594 C 17.128906 1.925781 17.121094 1.921875 17.117188 1.917969 C 17.109375 1.90625 17.101562 1.898438 17.089844 1.890625 C 17.085938 1.886719 17.082031 1.882812 17.078125 1.875 C 17.066406 1.867188 17.058594 1.859375 17.050781 1.851562 C 17.046875 1.84375 17.042969 1.839844 17.035156 1.835938 C 17.027344 1.828125 17.019531 1.820312 17.011719 1.808594 C 17.003906 1.804688 17 1.800781 16.996094 1.792969 C 16.988281 1.785156 16.976562 1.777344 16.96875 1.769531 C 16.964844 1.765625 16.960938 1.757812 16.953125 1.753906 C 16.945312 1.746094 16.9375 1.738281 16.929688 1.730469 C 16.925781 1.722656 16.917969 1.71875 16.914062 1.714844 C 16.90625 1.703125 16.898438 1.695312 16.886719 1.6875 C 16.882812 1.683594 16.878906 1.675781 16.875 1.671875 C 16.863281 1.664062 16.855469 1.65625 16.847656 1.648438 C 16.84375 1.640625 16.839844 1.636719 16.832031 1.632812 C 16.824219 1.625 16.816406 1.617188 16.808594 1.605469 C 16.800781 1.601562 16.796875 1.597656 16.792969 1.589844 C 16.785156 1.582031 16.773438 1.574219 16.765625 1.566406 C 16.761719 1.5625 16.757812 1.554688 16.75 1.550781 C 16.742188 1.542969 16.734375 1.535156 16.726562 1.527344 C 16.71875 1.519531 16.714844 1.515625 16.710938 1.507812 C 16.703125 1.5 16.695312 1.492188 16.683594 1.484375 C 16.679688 1.480469 16.675781 1.472656 16.671875 1.46875 C 16.660156 1.460938 16.652344 1.453125 16.644531 1.445312 C 16.640625 1.4375 16.632812 1.433594 16.628906 1.429688 C 16.621094 1.417969 16.613281 1.414062 16.605469 1.402344 C 16.597656 1.398438 16.59375 1.394531 16.589844 1.386719 C 16.582031 1.378906 16.570312 1.371094 16.5625 1.363281 C 16.558594 1.359375 16.554688 1.351562 16.546875 1.347656 C 16.539062 1.339844 16.53125 1.332031 16.523438 1.324219 C 16.515625 1.316406 16.511719 1.3125 16.507812 1.304688 C 16.5 1.296875 16.492188 1.289062 16.480469 1.28125 C 16.476562 1.277344 16.472656 1.269531 16.46875 1.265625 C 16.457031 1.257812 16.449219 1.25 16.441406 1.242188 C 16.4375 1.234375 16.429688 1.230469 16.425781 1.226562 C 16.417969 1.214844 16.410156 1.207031 16.402344 1.199219 C 16.394531 1.195312 16.390625 1.191406 16.386719 1.183594 C 16.378906 1.175781 16.367188 1.167969 16.359375 1.160156 C 16.355469 1.15625 16.351562 1.148438 16.34375 1.144531 C 16.335938 1.136719 16.328125 1.128906 16.320312 1.117188 C 16.3125 1.113281 16.308594 1.109375 16.304688 1.101562 C 16.296875 1.09375 16.285156 1.085938 16.277344 1.078125 C 16.273438 1.074219 16.269531 1.066406 16.261719 1.0625 C 16.253906 1.054688 16.246094 1.046875 16.238281 1.039062 C 16.234375 1.03125 16.226562 1.027344 16.222656 1.023438 C 15.210938 0 13.847656 0 13.398438 0 C 13.144531 0 12.875 0.0117188 12.570312 0.0390625 L 11.207031 0.160156 C 10.054688 0.261719 8.613281 0.535156 7.707031 1.761719 C 7.324219 2.277344 7.085938 2.894531 6.980469 3.648438 C 6.90625 4.167969 6.890625 4.777344 6.933594 5.558594 Z M 7.78125 23.039062 " fill-opacity="1" fill-rule="nonzero"/></g><path fill="#ffffff" d="M 11.910156 27.078125 C 11.460938 27.078125 10.097656 27.078125 9.269531 25.917969 C 8.808594 25.277344 8.589844 24.433594 8.511719 23 L 7.664062 5.523438 C 7.589844 4.140625 7.671875 3.042969 8.296875 2.195312 C 9.023438 1.210938 10.207031 0.980469 11.269531 0.890625 L 12.632812 0.769531 C 12.917969 0.742188 13.167969 0.730469 13.398438 0.730469 C 14.046875 0.730469 14.988281 0.816406 15.703125 1.535156 C 16.511719 2.355469 16.613281 3.621094 16.601562 4.863281 L 16.460938 17.988281 L 19.230469 17.726562 C 19.511719 17.703125 19.761719 17.691406 19.992188 17.691406 C 20.441406 17.691406 21.808594 17.691406 22.617188 18.851562 C 23.175781 19.652344 23.273438 20.730469 23.296875 21.777344 C 23.339844 23.1875 23.238281 24.300781 22.613281 25.140625 C 21.882812 26.117188 20.699219 26.34375 19.636719 26.4375 L 12.65625 27.042969 C 12.382812 27.066406 12.136719 27.078125 11.910156 27.078125 Z M 11.910156 27.078125 " fill-opacity="1" fill-rule="nonzero"/><path fill="#cc0372" d="M 11.910156 26.183594 C 9.949219 26.183594 9.519531 25.046875 9.40625 22.953125 L 8.554688 5.476562 C 8.492188 4.285156 8.546875 3.359375 9.015625 2.726562 C 9.53125 2.03125 10.441406 1.859375 11.347656 1.78125 L 12.714844 1.660156 C 12.96875 1.636719 13.195312 1.625 13.398438 1.625 C 14.171875 1.625 14.703125 1.796875 15.066406 2.164062 C 15.613281 2.71875 15.71875 3.640625 15.707031 4.855469 L 15.554688 18.96875 L 19.304688 18.617188 C 19.566406 18.59375 19.789062 18.585938 19.992188 18.585938 C 21.960938 18.585938 22.359375 19.714844 22.402344 21.800781 C 22.441406 23.023438 22.367188 23.972656 21.898438 24.601562 C 21.378906 25.296875 20.46875 25.464844 19.558594 25.546875 L 12.578125 26.152344 C 12.332031 26.171875 12.113281 26.183594 11.910156 26.183594 Z M 11.910156 26.183594 " fill-opacity="1" fill-rule="nonzero"/><path fill="#ff66c4" d="M 11.503906 24.800781 C 10.773438 24.800781 10.550781 24.628906 10.414062 24.441406 C 10.195312 24.132812 10.066406 23.527344 10.015625 22.53125 L 9.164062 5.0625 C 9.105469 3.9375 9.1875 3.289062 9.425781 2.964844 C 9.648438 2.667969 10.125 2.507812 11.03125 2.425781 L 12.398438 2.304688 C 12.625 2.285156 12.816406 2.277344 12.992188 2.277344 C 13.628906 2.277344 13.835938 2.410156 13.9375 2.515625 C 14.183594 2.761719 14.292969 3.386719 14.28125 4.476562 L 14.121094 19.722656 L 18.992188 19.265625 C 19.21875 19.246094 19.414062 19.234375 19.585938 19.234375 C 20.304688 19.234375 20.519531 19.398438 20.644531 19.578125 C 20.851562 19.878906 20.957031 20.476562 20.980469 21.457031 L 20.980469 21.460938 C 21.015625 22.648438 20.925781 23.296875 20.675781 23.628906 C 20.453125 23.929688 19.984375 24.085938 19.0625 24.167969 L 12.082031 24.773438 C 11.863281 24.792969 11.675781 24.800781 11.503906 24.800781 Z M 11.503906 24.800781 " fill-opacity="1" fill-rule="nonzero"/></svg>